<svg width="21" height="15" viewBox="0 0 21 15" fill="none" xmlns="http://www.w3.org/2000/svg">
<rect width="21" height="15" fill="#1E1E1E"/>
<g id="Desktop_1110" clip-path="url(#clip0_0_1)">
<rect width="1440" height="3234" transform="translate(-274 -2209)" fill="#EBEBEB"/>
<g id="Frame 139">
<rect width="1440" height="645" transform="translate(-274 -536)" fill="white"/>
<g id="Frame 223">
<g id="txt_btn">
<path id="Arrow 1" d="M20.7071 8.20711C21.0976 7.81658 21.0976 7.18342 20.7071 6.79289L14.3431 0.428932C13.9526 0.0384078 13.3195 0.0384078 12.9289 0.428932C12.5384 0.819457 12.5384 1.45262 12.9289 1.84315L18.5858 7.5L12.9289 13.1569C12.5384 13.5474 12.5384 14.1805 12.9289 14.5711C13.3195 14.9616 13.9526 14.9616 14.3431 14.5711L20.7071 8.20711ZM0 8.5H20V6.5H0V8.5Z" fill="#7875FE"/>
</g>
</g>
</g>
</g>
<defs>
<clipPath id="clip0_0_1">
<rect width="1440" height="3234" fill="white" transform="translate(-274 -2209)"/>
</clipPath>
</defs>
</svg>
